<svg width="11" height="11" viewBox="0 0 11 11" fill="none" xmlns="http://www.w3.org/2000/svg">
<path d="M10.322 0H6.53971C6.16584 0 5.8617 0.304172 5.8617 0.678003C5.8617 1.05183 6.16584 1.35601 6.53971 1.35601H8.68518L5.10629 4.93486C4.97817 5.0629 4.90766 5.23314 4.90766 5.4143C4.90766 5.59546 4.97813 5.76566 5.10622 5.89359C5.2343 6.02179 5.4045 6.09234 5.58566 6.09234C5.76675 6.09234 5.93702 6.02183 6.06514 5.89371L9.64399 2.31482V4.46029C9.64399 4.83412 9.94816 5.13829 10.322 5.13829C10.6958 5.13829 11 4.83412 11 4.46029V0.678003C11 0.304172 10.6958 0 10.322 0Z" fill="#263D5A"/>
<path d="M7.79266 9.83771H1.16229V3.20734H6.14895L7.31124 2.04505H0.581146C0.260198 2.04505 0 2.30525 0 2.6262V10.4189C0 10.7398 0.260198 11 0.581146 11H8.3738C8.69475 11 8.95495 10.7398 8.95495 10.4189V3.68876L7.79266 4.85105V9.83771Z" fill="#263D5A"/>
</svg>
