<svg width="49" height="49" viewBox="0 0 49 49" fill="none" xmlns="http://www.w3.org/2000/svg">
<path fill-rule="evenodd" clip-rule="evenodd" d="M48.46 48.4602C47.7402 49.1799 46.5733 49.1799 45.8535 48.4602L0.539827 3.14636C-0.179942 2.42659 -0.179942 1.25961 0.539827 0.539838C1.2596 -0.179933 2.42657 -0.179934 3.14634 0.539838L48.46 45.8536C49.1798 46.5734 49.1798 47.7404 48.46 48.4602Z" fill="#3874BF"/>
<path fill-rule="evenodd" clip-rule="evenodd" d="M0.539995 48.4602C-0.179775 47.7404 -0.179776 46.5734 0.539993 45.8536L45.8537 0.539828C46.5734 -0.179943 47.7404 -0.179943 48.4602 0.539829C49.1799 1.2596 49.1799 2.42658 48.4602 3.14635L3.14651 48.4602C2.42674 49.1799 1.25976 49.1799 0.539995 48.4602Z" fill="#3874BF"/>
</svg>
