<svg width="11" height="11" viewBox="0 0 11 11" fill="none" xmlns="http://www.w3.org/2000/svg">
<path fill-rule="evenodd" clip-rule="evenodd" d="M9.90082 9.90085C9.76861 10.0331 9.55427 10.0331 9.42207 9.90085L1.09915 1.5779C0.966949 1.4457 0.966949 1.23136 1.09915 1.09915C1.23135 0.966951 1.4457 0.966951 1.5779 1.09915L9.90082 9.4221C10.033 9.5543 10.033 9.76865 9.90082 9.90085Z" fill="#263D5A"/>
<path fill-rule="evenodd" clip-rule="evenodd" d="M1.09918 9.90085C0.96698 9.76864 0.96698 9.5543 1.09918 9.4221L9.4221 1.09915C9.5543 0.966949 9.76865 0.966949 9.90085 1.09915C10.0331 1.23136 10.0331 1.4457 9.90085 1.5779L1.57793 9.90085C1.44573 10.033 1.23139 10.033 1.09918 9.90085Z" fill="#263D5A"/>
<path fill-rule="evenodd" clip-rule="evenodd" d="M9.90082 9.90085C9.76861 10.0331 9.55427 10.0331 9.42207 9.90085L1.09915 1.5779C0.966949 1.4457 0.966949 1.23136 1.09915 1.09915C1.23135 0.966951 1.4457 0.966951 1.5779 1.09915L9.90082 9.4221C10.033 9.5543 10.033 9.76865 9.90082 9.90085Z" stroke="#263D5A"/>
<path fill-rule="evenodd" clip-rule="evenodd" d="M1.09918 9.90085C0.96698 9.76864 0.96698 9.5543 1.09918 9.4221L9.4221 1.09915C9.5543 0.966949 9.76865 0.966949 9.90085 1.09915C10.0331 1.23136 10.0331 1.4457 9.90085 1.5779L1.57793 9.90085C1.44573 10.033 1.23139 10.033 1.09918 9.90085Z" stroke="#263D5A"/>
</svg>
