<svg width="50" height="68" viewBox="0 0 50 68" fill="none" xmlns="http://www.w3.org/2000/svg">
<path d="M41.1111 14.0741C38.0741 14.0741 35.6296 11.5556 35.6296 8.59259V0H1.92593C0.888889 0 0 0.888889 0 1.92593V66.0741C0 67.1111 0.888889 68 1.92593 68H47.7778C48.8148 68 49.6296 67.1111 49.6296 66.0741V14.0741H41.1111ZM16.0741 36.1481C15.6296 38.4444 14.1481 40.1481 11.7778 40.5185L6.66667 40.6667C5.25926 40.6667 4.96296 40.0741 4.96296 38.7407V29.037C4.96296 27.8519 5.48148 27.4074 6.59259 27.4074C8.22222 27.4074 11.037 27.2593 12.4444 27.6296C15.8519 28.5185 16.8148 32.8148 16.0741 36.1481ZM24.5185 40.8889C20.2963 40.8889 18 38.0741 18 34C18 29.9259 20.2963 27.1852 24.4444 27.1852C28.7407 27.1111 31.037 29.8519 31.037 34C31.037 38.0741 28.8148 40.8889 24.5185 40.8889ZM41.6296 40.4444C39.9259 41.1852 37.3333 41.037 35.7037 40.0741C31.1111 37.3333 31.7037 27.1852 39.1111 27.1852C41.037 27.1852 42.8889 28 43.9259 29.4074C45.7037 31.9259 43.5556 32.8889 42.7407 32.1481C42 31.4815 41.7037 29.3333 39.1852 29.3333C35.3333 29.3333 35.037 34.5185 36 36.7407C36.963 39.037 39.6296 39.1852 41.037 38.2222C42.6667 37.1111 42 35.3333 43.4815 35.3333C44.1481 35.2593 44.6667 35.7778 44.6667 36.4444C44.6667 38.1481 43.2593 39.7037 41.6296 40.4444Z" fill="#3874BF"/>
<path d="M24.4444 29.3334C20.2222 29.2594 20.0741 35.4075 21.8518 37.5556C23.7037 39.7038 28.2963 39.1853 28.2963 34.0001C28.2963 31.4816 27.1852 29.3334 24.4444 29.3334Z" fill="#3874BF"/>
<path d="M9.48139 29.5554H7.70361V38.5925C8.74065 38.5184 10.6666 38.5925 11.5555 38.2962C14.074 37.4073 13.9258 32.5184 13.0369 31.0369C12.2221 29.7036 11.0369 29.5554 9.48139 29.5554Z" fill="#3874BF"/>
<path d="M41.1112 10.889H47.3335L38.8149 2.29639V8.59268C38.8149 9.85194 39.852 10.889 41.1112 10.889Z" fill="#3874BF"/>
</svg>
