<svg width="62" height="67" viewBox="0 0 62 67" fill="none" xmlns="http://www.w3.org/2000/svg">
<path d="M45.88 52.6429H42.16V50.25H49.388C49.1306 50.9493 48.6553 51.5547 48.0272 51.9831C47.3992 52.4115 46.6492 52.642 45.88 52.6429Z" fill="#113562"/>
<path d="M21.08 9.57143H3.72V8.375C3.72 6.15381 4.63449 4.0236 6.26231 2.45298C7.89013 0.882364 10.0979 0 12.4 0C14.7021 0 16.9099 0.882364 18.5377 2.45298C20.1655 4.0236 21.08 6.15381 21.08 8.375V9.57143Z" fill="#113562"/>
<path d="M39.68 45.4643H34.72V57.4286H39.68V45.4643Z" fill="#113562"/>
<path d="M32.24 44.2679V45.4643H29.76V21.5357H40.92V32.3036C40.92 32.5202 40.9809 32.7327 41.0962 32.9185C41.2116 33.1044 41.3771 33.2565 41.575 33.3587C41.773 33.4609 41.9959 33.5093 42.2202 33.4988C42.4444 33.4883 42.6615 33.4192 42.8482 33.299L45.88 31.3464L48.9118 33.2966C49.0984 33.4167 49.3152 33.4857 49.5392 33.4963C49.7632 33.507 49.986 33.4587 50.1839 33.3568C50.3818 33.2549 50.5473 33.1032 50.6628 32.9177C50.7783 32.7322 50.8396 32.52 50.84 32.3036V21.5357H62V47.8571H42.16V44.2679C42.16 43.9505 42.0294 43.6462 41.7968 43.4219C41.5643 43.1975 41.2489 43.0714 40.92 43.0714H33.48C33.1511 43.0714 32.8357 43.1975 32.6032 43.4219C32.3706 43.6462 32.24 43.9505 32.24 44.2679Z" fill="#113562"/>
<path d="M11.16 26.3214H12.4V28.7143H7.44V25.125C7.44011 24.9027 7.37601 24.6847 7.25488 24.4956C7.13376 24.3064 6.9604 24.1536 6.75428 24.0542C6.21356 23.7961 5.75876 23.3967 5.44157 22.9016C5.12438 22.4065 4.95753 21.8354 4.96 21.2534V11.9643H19.84V17.9464C19.838 19.5324 19.1842 21.0529 18.0219 22.1743C16.8596 23.2958 15.2837 23.9267 13.64 23.9286H11.16C10.8311 23.9286 10.5157 24.0546 10.2832 24.279C10.0506 24.5034 9.92 24.8077 9.92 25.125C9.92 25.4423 10.0506 25.7466 10.2832 25.971C10.5157 26.1954 10.8311 26.3214 11.16 26.3214Z" fill="#113562"/>
<path d="M0 37.0893C0.00196894 35.5033 0.655816 33.9828 1.81812 32.8614C2.98041 31.7399 4.55626 31.109 6.2 31.1071H16.12C17.7637 31.109 19.3396 31.7399 20.5019 32.8614C21.6642 33.9828 22.318 35.5033 22.32 37.0893V45.4643H18.6C18.2711 45.4643 17.9557 45.3382 17.7232 45.1139C17.4906 44.8895 17.36 44.5852 17.36 44.2679V39.4821C17.36 37.8956 16.7068 36.374 15.5441 35.2521C14.3813 34.1303 12.8043 33.5 11.16 33.5C9.51566 33.5 7.93866 34.1303 6.77594 35.2521C5.61321 36.374 4.96 37.8956 4.96 39.4821V46.6607C4.96328 49.5156 6.14012 52.2526 8.23232 54.2712C10.3245 56.2899 13.1612 57.4254 16.12 57.4286H22.32V62.2143H0V37.0893Z" fill="#113562"/>
<path d="M46.5682 28.9153C46.3644 28.7841 46.125 28.7141 45.88 28.7141C45.635 28.7141 45.3956 28.7841 45.1918 28.9153L43.4 30.0674V21.5357H48.36V30.0674L46.5682 28.9153Z" fill="#113562"/>
<path d="M22.32 64.6071H0V67H22.32V64.6071Z" fill="#113562"/>
<path d="M7.44 46.6607V39.4821C7.44 38.5302 7.83193 37.6173 8.52956 36.9441C9.2272 36.271 10.1734 35.8929 11.16 35.8929C12.1466 35.8929 13.0928 36.271 13.7904 36.9441C14.4881 37.6173 14.88 38.5302 14.88 39.4821V44.2679C14.88 45.2198 15.2719 46.1327 15.9696 46.8059C16.6672 47.479 17.6134 47.8571 18.6 47.8571H32.24V55.0357H16.12C13.8187 55.0332 11.6125 54.15 9.98521 52.5799C8.35796 51.0099 7.44263 48.8811 7.44 46.6607Z" fill="#113562"/>
<path d="M28.52 9.57143H22.32V11.9643H28.52C28.8489 11.9643 29.1643 11.8382 29.3968 11.6139C29.6294 11.3895 29.76 11.0852 29.76 10.7679C29.76 10.4505 29.6294 10.1462 29.3968 9.92185C29.1643 9.69748 28.8489 9.57143 28.52 9.57143Z" fill="#113562"/>
</svg>
