<svg width="61" height="67" viewBox="0 0 61 67" fill="none" xmlns="http://www.w3.org/2000/svg">
<mask id="mask0" mask-type="alpha" maskUnits="userSpaceOnUse" x="0" y="0" width="61" height="67">
<rect width="61" height="67" fill="#C4C4C4"/>
</mask>
<g mask="url(#mask0)">
<path d="M37.6484 31.0195C32.5288 31.0195 17.0276 31.0195 17.9902 31.0195V38.168H28.7129V34.5938H37.6484C38.6344 34.5938 39.4355 35.3949 39.4355 36.3809V42.0714C37.3599 42.8116 35.8613 44.7767 35.8613 47.1035V52.584H46.584V47.1035C46.584 44.7767 45.0854 42.8116 43.0098 42.0714V36.3809C43.0098 33.4245 40.6048 31.0195 37.6484 31.0195Z" fill="#113562"/>
<path d="M10.8418 14.9355C10.8418 11.9792 13.2468 9.57422 16.2031 9.57422H35.8613V6H16.2031C11.2763 6 7.26758 10.0087 7.26758 14.9355V16.7227H10.8418V14.9355Z" fill="#113562"/>
<path d="M39.4355 6H43.0098V9.57422H39.4355V6Z" fill="#113562"/>
<path d="M14.416 13.1484H28.7129V16.7227H14.416V13.1484Z" fill="#113562"/>
<path d="M32.2871 13.1484H43.0098V16.7227H32.2871V13.1484Z" fill="#113562"/>
<path d="M3.57422 20.2969H14.416V27.4453H3.57422V20.2969Z" fill="#113562"/>
<path d="M3.57422 31.0195H14.416V38.168H3.57422V31.0195Z" fill="#113562"/>
<path d="M57.3066 42.0714V32.8066C57.3066 27.8798 53.2979 23.8711 48.3711 23.8711H28.7129V20.2969H17.9902V27.4453H48.3711C51.3274 27.4453 53.7324 29.8503 53.7324 32.8066V42.0714C51.6568 42.8116 50.1582 44.7767 50.1582 47.1035V52.584H61V47.1035C61 44.7767 59.3823 42.8116 57.3066 42.0714Z" fill="#113562"/>
<path d="M32.2871 41.7422H0V67H61V56.1582H32.2871V41.7422ZM10.8418 59.7324H7.26758V56.1582H10.8418V59.7324ZM10.8418 52.584H7.26758V49.0098H10.8418V52.584ZM17.9902 59.7324H14.416V56.1582H17.9902V59.7324ZM17.9902 52.584H14.416V49.0098H17.9902V52.584ZM25.1387 59.7324H21.5645V56.1582H25.1387V59.7324ZM25.1387 52.584H21.5645V49.0098H25.1387V52.584Z" fill="#113562"/>
</g>
</svg>
