<svg width="92" height="67" viewBox="0 0 92 67" fill="none" xmlns="http://www.w3.org/2000/svg">
<mask id="mask0" mask-type="alpha" maskUnits="userSpaceOnUse" x="0" y="0" width="92" height="67">
<rect width="92" height="67" fill="#C4C4C4"/>
</mask>
<g mask="url(#mask0)">
<path d="M67.4133 58.9375C67.2164 60.0224 67.2164 61.1339 67.4133 62.2188H31.0242C31.2211 61.1339 31.2211 60.0224 31.0242 58.9375H67.4133Z" fill="#113562"/>
<path d="M77.1094 54.0156C78.4073 54.0156 79.6761 54.4005 80.7553 55.1216C81.8345 55.8427 82.6757 56.8676 83.1724 58.0668C83.6691 59.2659 83.799 60.5854 83.5458 61.8584C83.2926 63.1314 82.6676 64.3007 81.7498 65.2185C80.832 66.1363 79.6627 66.7613 78.3897 67.0145C77.1167 67.2678 75.7972 67.1378 74.598 66.6411C73.3989 66.1444 72.374 65.3033 71.6529 64.2241C70.9318 63.1449 70.5469 61.8761 70.5469 60.5781C70.5469 58.8376 71.2383 57.1684 72.469 55.9377C73.6997 54.707 75.3689 54.0156 77.1094 54.0156ZM77.1094 63.8594C77.7584 63.8594 78.3928 63.6669 78.9324 63.3064C79.472 62.9458 79.8925 62.4334 80.1409 61.8338C80.3892 61.2342 80.4542 60.5745 80.3276 59.938C80.201 59.3015 79.8885 58.7168 79.4296 58.2579C78.9707 57.799 78.386 57.4865 77.7495 57.3599C77.113 57.2333 76.4533 57.2983 75.8537 57.5466C75.2541 57.795 74.7417 58.2156 74.3811 58.7552C74.0206 59.2948 73.8281 59.9292 73.8281 60.5781C73.8281 61.4484 74.1738 62.283 74.7892 62.8983C75.4046 63.5137 76.2391 63.8594 77.1094 63.8594Z" fill="#113562"/>
<path d="M91.875 58.9375V60.5781C91.875 61.0132 91.7022 61.4305 91.3945 61.7382C91.0868 62.0459 90.6695 62.2188 90.2344 62.2188H86.8055C87.0024 61.1339 87.0024 60.0224 86.8055 58.9375H91.875Z" fill="#113562"/>
<path d="M68.5978 55.6562H65.625V26.125H68.9063V42.5312C68.9063 42.9664 69.0791 43.3837 69.3868 43.6913C69.6945 43.999 70.1118 44.1719 70.5469 44.1719H88.5938V55.6562H85.6209C84.7599 54.1602 83.5197 52.9176 82.0254 52.0536C80.5311 51.1895 78.8355 50.7346 77.1094 50.7346C75.3833 50.7346 73.6876 51.1895 72.1933 52.0536C70.6991 52.9176 69.4589 54.1602 68.5978 55.6562Z" fill="#113562"/>
<path d="M4.9219 62.2188C4.48678 62.2188 4.06948 62.0459 3.7618 61.7382C3.45412 61.4305 3.28127 61.0132 3.28127 60.5781V58.9375H11.6321C11.4352 60.0224 11.4352 61.1339 11.6321 62.2188H4.9219Z" fill="#113562"/>
<path d="M21.3282 54.0156C22.6261 54.0156 23.8949 54.4005 24.9741 55.1216C26.0533 55.8427 26.8944 56.8676 27.3911 58.0668C27.8878 59.2659 28.0178 60.5854 27.7646 61.8584C27.5113 63.1314 26.8863 64.3007 25.9685 65.2185C25.0508 66.1363 23.8814 66.7613 22.6084 67.0145C21.3354 67.2678 20.0159 67.1378 18.8168 66.6411C17.6176 66.1444 16.5927 65.3033 15.8716 64.2241C15.1505 63.1449 14.7656 61.8761 14.7656 60.5781C14.7656 58.8376 15.4571 57.1684 16.6878 55.9377C17.9185 54.707 19.5877 54.0156 21.3282 54.0156ZM21.3282 63.8594C21.9771 63.8594 22.6115 63.6669 23.1511 63.3064C23.6907 62.9458 24.1113 62.4334 24.3596 61.8338C24.608 61.2342 24.673 60.5745 24.5464 59.938C24.4198 59.3015 24.1072 58.7168 23.6484 58.2579C23.1895 57.799 22.6048 57.4865 21.9683 57.3599C21.3318 57.2333 20.672 57.2983 20.0725 57.5466C19.4729 57.795 18.9604 58.2156 18.5999 58.7552C18.2393 59.2948 18.0469 59.9292 18.0469 60.5781C18.0469 61.4484 18.3926 62.283 19.008 62.8983C19.6233 63.5137 20.4579 63.8594 21.3282 63.8594Z" fill="#113562"/>
<path d="M0 55.6562V52.375H15.8977C14.6326 53.218 13.5784 54.3407 12.8166 55.6562H0Z" fill="#113562"/>
<path d="M37.7344 26.125H39.375V29.4062H37.7344C37.2993 29.4062 36.882 29.2334 36.5743 28.9257C36.2666 28.618 36.0938 28.2007 36.0938 27.7656C36.0938 27.3305 36.2666 26.9132 36.5743 26.6055C36.882 26.2979 37.2993 26.125 37.7344 26.125Z" fill="#113562"/>
<path d="M80.9747 26.125L87.6865 40.8906H72.1875V26.125H80.9747Z" fill="#113562"/>
<path d="M7.6437e-06 13H62.3438V49.0938H7.6437e-06V13Z" fill="#113562"/>
<path d="M26.7586 52.375H62.3438V55.6562H29.8397C29.0779 54.3407 28.0237 53.218 26.7586 52.375Z" fill="#113562"/>
<path d="M42.9244 28.7022L45.2619 24.6739C45.4414 24.3647 45.4414 23.9834 45.2619 23.6738C45.0824 23.3642 44.7508 23.1738 44.3918 23.1738H39.7187L37.3832 19.1455C37.0242 18.5264 36.0021 18.5264 35.6431 19.1455L33.3076 23.1738H32.5044V25.1738H33.307L34.7732 27.7028L32.5044 27.7024V29.7024L34.7732 29.7028L33.307 32.2309H32.5044V32.8425L35.6431 38.2593C35.8226 38.5688 36.1542 38.7593 36.5131 38.7593C36.8721 38.7593 37.2037 38.5688 37.3832 38.2593L39.7187 34.2309H44.3918C44.7508 34.2309 45.0824 34.0405 45.2619 33.7309C45.4413 33.4214 45.4413 33.0401 45.2619 32.7309L42.9244 28.7022ZM36.5131 35.7593L35.0472 33.231L36.5131 30.7034L37.9791 33.231L36.5131 35.7593ZM36.5131 26.7024L35.0472 24.1738L36.5131 21.6455L37.9791 24.1738L36.5131 26.7024ZM39.7193 32.2309L38.2534 29.7031H41.1855L42.6517 32.2309H39.7193ZM41.1843 27.7031H38.2528L39.7192 25.1738H42.6517L41.1843 27.7031Z" fill="white"/>
<path d="M41.9703 39.1186C42.5251 39.1186 42.9748 38.6709 42.9748 38.1186C42.9748 37.5663 42.5251 37.1186 41.9703 37.1186C41.4156 37.1186 40.9659 37.5663 40.9659 38.1186C40.9659 38.6709 41.4156 39.1186 41.9703 39.1186Z" fill="white"/>
<path d="M47.433 29.7035C47.9878 29.7035 48.4375 29.2558 48.4375 28.7035C48.4375 28.1512 47.9878 27.7035 47.433 27.7035C46.8783 27.7035 46.4286 28.1512 46.4286 28.7035C46.4286 29.2558 46.8783 29.7035 47.433 29.7035Z" fill="white"/>
<path d="M41.973 20.2898C42.5278 20.2898 42.9775 19.8421 42.9775 19.2898C42.9775 18.7375 42.5278 18.2898 41.973 18.2898C41.4183 18.2898 40.9686 18.7375 40.9686 19.2898C40.9686 19.8421 41.4183 20.2898 41.973 20.2898Z" fill="white"/>
<path d="M31.5 33.7711V22.7151C31.5 21.8093 31.241 20.9714 30.8202 20.2382C30.9026 20.2599 30.9828 20.2888 31.0721 20.2888C31.6268 20.2888 32.0765 19.8411 32.0765 19.2888C32.0765 18.7365 31.6268 18.2888 31.0721 18.2888C30.538 18.2888 30.1115 18.7067 30.0794 19.2301C29.1669 18.2912 27.8934 17.7031 26.4745 17.7031C23.6944 17.7031 21.4544 19.8591 21.4544 22.6271V33.7031C20.2148 34.9691 19.4375 36.7831 19.4375 38.6911C19.4375 42.5622 22.5926 45.7031 26.4849 45.7031C30.3749 45.7031 33.532 42.5621 33.532 38.6911C33.5319 36.7732 32.7474 35.0391 31.5 33.7711ZM26.4849 43.7031C23.7067 43.7031 21.4464 41.4548 21.4464 38.6911C21.4464 36.6103 22.4837 35.517 23.4634 34.5167C23.4634 27.5271 23.4634 29.4871 23.4634 22.6271C23.4634 20.9875 24.7861 19.7031 26.4746 19.7031C28.1379 19.7031 29.4911 21.0543 29.4911 22.7151C29.4911 29.5499 29.4911 27.6129 29.4911 34.5874C30.4752 35.5875 31.5231 36.6339 31.5231 38.6911C31.523 41.4547 29.263 43.7031 26.4849 43.7031Z" fill="white"/>
<path d="M27.4731 35.8209C27.4731 31.12 27.4731 32.1331 27.4731 26.7031H25.4642C25.4642 32.1416 25.4642 31.1128 25.4642 35.821C24.4595 36.4029 23.4552 37.0863 23.4552 38.6911C23.4552 40.3453 24.8069 41.6911 26.4686 41.6911C28.1303 41.6911 29.482 40.3453 29.482 38.6911C29.482 37.0864 28.4778 36.4029 27.4731 35.8209Z" fill="white"/>
</g>
</svg>
