<svg width="266" height="73" viewBox="0 0 266 73" fill="none" xmlns="http://www.w3.org/2000/svg">
<path d="M0 73C9.20884 56.834 26.9888 43.498 39.5809 58.9049C32.307 34.93 39.2939 24.0358 58.8465 0C26.8295 21.1479 7.58159 43.2962 0 73Z" fill="white"/>
<path d="M54.6289 42.9984V72.4821H51.7028V42.9984H54.6289ZM67.9153 42.9984H71.395L60.1254 57.0629L71.8695 72.4821H68.2316L56.6456 57.3816L67.9153 42.9984Z" fill="white"/>
<path d="M86.339 42.9984H89.5815L102.117 72.4821H98.9531L94.7221 62.601H81.1194L76.8883 72.4821H73.7249L86.339 42.9984ZM93.5753 59.9316L87.9603 46.4248L82.2661 59.9316H93.5753Z" fill="white"/>
<path d="M105.474 42.9984H126.511V72.4821H123.585V45.6679H108.4V72.4821H105.474V42.9984Z" fill="white"/>
<path d="M133.151 42.9984H142.404C150.984 42.9984 152.487 48.4967 152.487 51.8435C152.487 56.2262 149.798 60.6488 142.404 60.6488H136.077V72.4821H133.151V42.9984ZM136.077 57.9793H142.443C147.663 57.9793 149.561 54.9114 149.561 51.8435C149.561 48.6959 147.663 45.6679 142.443 45.6679H136.077V57.9793Z" fill="white"/>
<path d="M159.483 42.9984V68.2986L176.882 42.9984H179.966V72.4821H177.04V47.1819L159.641 72.4821H156.557V42.9984H159.483Z" fill="white"/>
<path d="M215.551 57.5808C215.551 66.426 208.75 73 200.05 73C191.43 73 184.55 66.665 184.55 57.8199C184.55 48.9748 191.351 42.4804 200.05 42.4804C208.789 42.4804 215.551 48.8155 215.551 57.5808ZM212.625 57.5808C212.625 50.2498 207.128 45.1499 200.09 45.1499C192.933 45.1499 187.476 50.4888 187.476 57.8199C187.476 65.2306 193.051 70.3305 200.09 70.3305C207.207 70.3305 212.625 64.9518 212.625 57.5808Z" fill="white"/>
<path d="M243.78 72.4821H240.577L230.336 46.7038L220.015 72.4821H216.812L228.952 42.9984H231.72L243.78 72.4821Z" fill="white"/>
<path d="M249.985 42.9984V55.1903H256.708C262.639 55.1903 266 58.5769 266 63.8362C266 68.9759 262.243 72.4821 256.708 72.4821H247.059V42.9984H249.985ZM249.985 69.8126H256.747C261.848 69.8126 263.074 66.1072 263.074 63.8362C263.074 61.5652 261.848 57.8597 256.747 57.8597H249.985V69.8126Z" fill="white"/>
</svg>
