<svg width="229" height="63" viewBox="0 0 229 63" fill="none" xmlns="http://www.w3.org/2000/svg">
<path d="M0 63C7.95284 49.0485 23.3078 37.5394 34.1825 50.8357C27.9007 30.1451 33.9345 20.7432 50.8204 0C23.1702 18.251 6.54753 37.3652 0 63Z" fill="#113562"/>
<path d="M46.4579 37.1082V62.553H43.9308V37.1082H46.4579ZM57.9321 37.1082H60.9372L51.2047 49.246L61.347 62.553H58.2053L48.1995 49.5211L57.9321 37.1082Z" fill="#113562"/>
<path d="M73.843 37.1082H76.6433L87.4687 62.553H84.7367L81.0827 54.0256H69.3353L65.6813 62.553H62.9494L73.843 37.1082ZM80.0924 51.7218L75.2431 40.0653L70.3257 51.7218H80.0924Z" fill="#113562"/>
<path d="M90.3682 37.1082H108.536V62.553H106.009V39.412H92.8953V62.553H90.3682V37.1082Z" fill="#113562"/>
<path d="M114.27 37.1082H122.261C129.671 37.1082 130.969 41.8533 130.969 44.7416C130.969 48.524 128.647 52.3407 122.261 52.3407H116.797V62.553H114.27V37.1082ZM116.797 50.0369H122.295C126.803 50.0369 128.442 47.3893 128.442 44.7416C128.442 42.0252 126.803 39.412 122.295 39.412H116.797V50.0369Z" fill="#113562"/>
<path d="M137.011 37.1082V58.9426L152.037 37.1082H154.7V62.553H152.173V40.7186L137.148 62.553H134.484V37.1082H137.011Z" fill="#113562"/>
<path d="M185.432 49.693C185.432 57.3265 179.558 63 172.045 63C164.601 63 158.659 57.5328 158.659 49.8994C158.659 42.2659 164.532 36.6612 172.045 36.6612C179.592 36.6612 185.432 42.1284 185.432 49.693ZM182.905 49.693C182.905 43.3662 178.158 38.965 172.079 38.965C165.898 38.965 161.186 43.5726 161.186 49.8994C161.186 56.2949 166.001 60.6962 172.079 60.6962C178.226 60.6962 182.905 56.0543 182.905 49.693Z" fill="#113562"/>
<path d="M209.811 62.553H207.045L198.2 40.306L189.287 62.553H186.521L197.005 37.1082H199.395L209.811 62.553Z" fill="#113562"/>
<path d="M215.169 37.1082V47.63H220.975C226.097 47.63 229 50.5527 229 55.0915C229 59.5271 225.756 62.553 220.975 62.553H212.642V37.1082H215.169ZM215.169 60.2492H221.009C225.414 60.2492 226.473 57.0514 226.473 55.0915C226.473 53.1316 225.414 49.9337 221.009 49.9337H215.169V60.2492Z" fill="#113562"/>
</svg>
