<svg width="23" height="24" viewBox="0 0 23 24" fill="none" xmlns="http://www.w3.org/2000/svg">
<path d="M9.41263 1.36343C14.0107 1.36343 17.7126 5.0367 17.7126 9.53672C17.7126 14.0367 14.0107 17.71 9.41263 17.71C4.81453 17.71 1.1127 14.0367 1.1127 9.53672C1.1127 5.03669 4.81453 1.36343 9.41263 1.36343Z" fill="white" fill-opacity="0.01" stroke="#263D5A" stroke-width="2.2"/>
<mask id="path-2-inside-1" fill="white">
<path fill-rule="evenodd" clip-rule="evenodd" d="M14.7298 16.9161L16.1268 15.5193L21.0653 20.4582L19.6686 21.855L14.7298 16.9161Z"/>
</mask>
<path fill-rule="evenodd" clip-rule="evenodd" d="M14.7298 16.9161L16.1268 15.5193L21.0653 20.4582L19.6686 21.855L14.7298 16.9161Z" fill="#263D5A"/>
<path d="M14.7298 16.9161L13.3157 15.5019L11.9014 16.9161L13.3156 18.3303L14.7298 16.9161ZM16.1268 15.5193L17.541 14.1052L16.1269 12.6909L14.7126 14.1051L16.1268 15.5193ZM21.0653 20.4582L22.4796 21.8724L23.8937 20.4582L22.4796 19.044L21.0653 20.4582ZM19.6686 21.855L18.2543 23.2692L19.6686 24.6835L21.0828 23.2692L19.6686 21.855ZM16.144 18.3304L17.5409 16.9336L14.7126 14.1051L13.3157 15.5019L16.144 18.3304ZM14.7125 16.9335L19.6511 21.8724L22.4796 19.044L17.541 14.1052L14.7125 16.9335ZM19.6511 19.044L18.2543 20.4409L21.0828 23.2692L22.4796 21.8724L19.6511 19.044ZM21.0828 20.4408L16.1441 15.502L13.3156 18.3303L18.2543 23.2692L21.0828 20.4408Z" fill="#263D5A" mask="url(#path-2-inside-1)"/>
</svg>
