<svg width="359" height="200" viewBox="0 0 359 200" fill="none" xmlns="http://www.w3.org/2000/svg">
<path d="M0 0H359V200H0V0Z" fill="#EEF6FF"/>
<path opacity="0.3" d="M146.078 106C146.078 105.405 146.078 104.832 146.078 104.282C146.078 103.732 146.078 103.127 146.078 102.467V98.8825C146.078 98.2075 146.078 97.5925 146.078 97.0375C146.078 96.4775 146.078 95.9 146.078 95.305H147.436C147.436 95.9 147.436 96.4775 147.436 97.0375C147.436 97.5925 147.436 98.2075 147.436 98.8825V102.467C147.436 103.127 147.436 103.732 147.436 104.282C147.436 104.832 147.436 105.405 147.436 106H146.078ZM138.968 106C138.968 105.405 138.968 104.832 138.968 104.282C138.968 103.732 138.968 103.127 138.968 102.467V98.8825C138.968 98.2075 138.968 97.5925 138.968 97.0375C138.968 96.4775 138.968 95.9 138.968 95.305H140.326C140.326 95.9 140.326 96.4775 140.326 97.0375C140.326 97.5925 140.326 98.2075 140.326 98.8825V102.467C140.326 103.127 140.326 103.732 140.326 104.282C140.326 104.832 140.326 105.405 140.326 106H138.968ZM139.853 101.17V100H146.596V101.17H139.853ZM150.953 106C150.953 105.405 150.953 104.832 150.953 104.282C150.953 103.732 150.953 103.127 150.953 102.467V98.875C150.953 98.21 150.953 97.5975 150.953 97.0375C150.953 96.4775 150.953 95.9 150.953 95.305H157.598V96.4675C157.098 96.4675 156.561 96.4675 155.986 96.4675C155.416 96.4675 154.741 96.4675 153.961 96.4675H151.531L152.281 95.5C152.281 96.1 152.281 96.68 152.281 97.24C152.281 97.795 152.281 98.405 152.281 99.07V102.265C152.281 102.92 152.281 103.525 152.281 104.08C152.281 104.63 152.281 105.202 152.281 105.797L151.606 104.837H154.081C154.736 104.837 155.353 104.837 155.933 104.837C156.518 104.837 157.078 104.837 157.613 104.837V106H150.953ZM151.988 101.147V100.015H154.066C154.756 100.015 155.351 100.015 155.851 100.015C156.351 100.015 156.833 100.015 157.298 100.015V101.147C156.808 101.147 156.313 101.147 155.813 101.147C155.318 101.147 154.733 101.147 154.058 101.147H151.988ZM163.355 106C163.355 105.405 163.355 104.832 163.355 104.282C163.355 103.732 163.355 103.127 163.355 102.467V99.0775C163.355 98.4075 163.355 97.795 163.355 97.24C163.355 96.68 163.355 96.1 163.355 95.5L163.895 96.5125H162.627C162.022 96.5125 161.485 96.5125 161.015 96.5125C160.55 96.5125 160.107 96.5125 159.687 96.5125V95.305H168.372V96.5125C167.952 96.5125 167.51 96.5125 167.045 96.5125C166.58 96.5125 166.042 96.5125 165.432 96.5125H164.165L164.712 95.5C164.712 96.1 164.712 96.68 164.712 97.24C164.712 97.795 164.712 98.4075 164.712 99.0775V102.467C164.712 103.127 164.712 103.732 164.712 104.282C164.712 104.832 164.712 105.405 164.712 106H163.355ZM179.69 105.062L179.705 103.967H180.208C181.088 103.967 181.803 103.842 182.353 103.592C182.908 103.342 183.318 102.975 183.583 102.49C183.848 102 183.98 101.392 183.98 100.667C183.98 99.9325 183.85 99.32 183.59 98.83C183.33 98.335 182.928 97.9625 182.383 97.7125C181.843 97.4625 181.143 97.3375 180.283 97.3375H179.78L179.765 96.2425H180.298C181.513 96.2425 182.493 96.43 183.238 96.805C183.983 97.18 184.525 97.7 184.865 98.365C185.21 99.025 185.383 99.7925 185.383 100.667C185.383 101.507 185.213 102.26 184.873 102.925C184.538 103.585 183.99 104.107 183.23 104.492C182.475 104.872 181.463 105.062 180.193 105.062H179.69ZM179.023 105.062C178.068 105.062 177.26 104.952 176.6 104.732C175.94 104.512 175.405 104.205 174.995 103.81C174.59 103.41 174.295 102.945 174.11 102.415C173.925 101.88 173.833 101.297 173.833 100.667C173.833 99.7925 174.003 99.025 174.343 98.365C174.683 97.7 175.225 97.18 175.97 96.805C176.72 96.43 177.703 96.2425 178.918 96.2425H179.443L179.428 97.3375H178.925C178.075 97.3375 177.378 97.4625 176.833 97.7125C176.288 97.9625 175.885 98.335 175.625 98.83C175.365 99.32 175.235 99.9325 175.235 100.667C175.235 101.392 175.365 102 175.625 102.49C175.89 102.975 176.3 103.342 176.855 103.592C177.41 103.842 178.125 103.967 179 103.967H179.503L179.518 105.062H179.023ZM178.925 106.315C178.925 106.04 178.925 105.78 178.925 105.535C178.925 105.29 178.925 105.04 178.925 104.785L178.955 104.755C178.955 104.41 178.955 104.057 178.955 103.697C178.955 103.332 178.955 102.952 178.955 102.557V98.7475C178.955 98.3525 178.955 97.975 178.955 97.615C178.955 97.25 178.955 96.895 178.955 96.55L178.925 96.52C178.925 96.265 178.925 96.015 178.925 95.77C178.925 95.52 178.925 95.26 178.925 94.99H180.283C180.283 95.26 180.283 95.52 180.283 95.77C180.283 96.015 180.283 96.265 180.283 96.52L180.253 96.55C180.253 96.895 180.253 97.25 180.253 97.615C180.253 97.975 180.253 98.3525 180.253 98.7475V102.557C180.253 102.952 180.253 103.33 180.253 103.69C180.253 104.05 180.253 104.405 180.253 104.755L180.283 104.785C180.283 105.035 180.283 105.285 180.283 105.535C180.283 105.78 180.283 106.04 180.283 106.315H178.925ZM192.935 106.165C192.03 106.165 191.238 106.02 190.558 105.73C189.878 105.435 189.31 105.032 188.855 104.522C188.405 104.007 188.068 103.417 187.843 102.752C187.618 102.087 187.505 101.385 187.505 100.645C187.505 99.605 187.715 98.6675 188.135 97.8325C188.56 96.9975 189.173 96.335 189.973 95.845C190.773 95.355 191.745 95.11 192.89 95.11C193.76 95.11 194.528 95.2525 195.193 95.5375C195.863 95.8225 196.425 96.2175 196.88 96.7225C197.335 97.2275 197.678 97.815 197.908 98.485C198.138 99.155 198.253 99.8725 198.253 100.637C198.253 101.692 198.043 102.637 197.623 103.472C197.203 104.302 196.595 104.96 195.8 105.445C195.005 105.925 194.05 106.165 192.935 106.165ZM192.898 104.995C193.583 104.995 194.173 104.877 194.668 104.642C195.163 104.402 195.57 104.077 195.89 103.667C196.215 103.257 196.455 102.792 196.61 102.272C196.765 101.747 196.843 101.202 196.843 100.637C196.843 100.027 196.758 99.46 196.588 98.935C196.423 98.405 196.173 97.9425 195.838 97.5475C195.508 97.1475 195.098 96.8375 194.608 96.6175C194.118 96.3925 193.548 96.28 192.898 96.28C192.228 96.28 191.643 96.3975 191.143 96.6325C190.648 96.8675 190.235 97.19 189.905 97.6C189.575 98.005 189.328 98.47 189.163 98.995C188.998 99.515 188.915 100.062 188.915 100.637C188.915 101.217 188.995 101.767 189.155 102.287C189.315 102.807 189.558 103.272 189.883 103.682C190.213 104.087 190.628 104.407 191.128 104.642C191.628 104.877 192.218 104.995 192.898 104.995ZM203.415 106C203.415 105.405 203.415 104.832 203.415 104.282C203.415 103.732 203.415 103.127 203.415 102.467V99.0775C203.415 98.4075 203.415 97.795 203.415 97.24C203.415 96.68 203.415 96.1 203.415 95.5L203.955 96.5125H202.688C202.083 96.5125 201.545 96.5125 201.075 96.5125C200.61 96.5125 200.168 96.5125 199.748 96.5125V95.305H208.433V96.5125C208.013 96.5125 207.57 96.5125 207.105 96.5125C206.64 96.5125 206.103 96.5125 205.493 96.5125H204.225L204.773 95.5C204.773 96.1 204.773 96.68 204.773 97.24C204.773 97.795 204.773 98.4075 204.773 99.0775V102.467C204.773 103.127 204.773 103.732 204.773 104.282C204.773 104.832 204.773 105.405 204.773 106H203.415ZM215.339 106.165C214.434 106.165 213.641 106.02 212.961 105.73C212.281 105.435 211.714 105.032 211.259 104.522C210.809 104.007 210.471 103.417 210.246 102.752C210.021 102.087 209.909 101.385 209.909 100.645C209.909 99.605 210.119 98.6675 210.539 97.8325C210.964 96.9975 211.576 96.335 212.376 95.845C213.176 95.355 214.149 95.11 215.294 95.11C216.164 95.11 216.931 95.2525 217.596 95.5375C218.266 95.8225 218.829 96.2175 219.284 96.7225C219.739 97.2275 220.081 97.815 220.311 98.485C220.541 99.155 220.656 99.8725 220.656 100.637C220.656 101.692 220.446 102.637 220.026 103.472C219.606 104.302 218.999 104.96 218.204 105.445C217.409 105.925 216.454 106.165 215.339 106.165ZM215.301 104.995C215.986 104.995 216.576 104.877 217.071 104.642C217.566 104.402 217.974 104.077 218.294 103.667C218.619 103.257 218.859 102.792 219.014 102.272C219.169 101.747 219.246 101.202 219.246 100.637C219.246 100.027 219.161 99.46 218.991 98.935C218.826 98.405 218.576 97.9425 218.241 97.5475C217.911 97.1475 217.501 96.8375 217.011 96.6175C216.521 96.3925 215.951 96.28 215.301 96.28C214.631 96.28 214.046 96.3975 213.546 96.6325C213.051 96.8675 212.639 97.19 212.309 97.6C211.979 98.005 211.731 98.47 211.566 98.995C211.401 99.515 211.319 100.062 211.319 100.637C211.319 101.217 211.399 101.767 211.559 102.287C211.719 102.807 211.961 103.272 212.286 103.682C212.616 104.087 213.031 104.407 213.531 104.642C214.031 104.877 214.621 104.995 215.301 104.995Z" fill="#263D5A"/>
<g opacity="0.4">
<path d="M20 180C22.5272 175.571 27.4067 171.917 30.8624 176.138C28.8662 169.57 30.7837 166.585 36.1496 160C27.363 165.794 22.0807 171.862 20 180Z" fill="#263D5A"/>
<path d="M34.9921 171.78V179.858H34.1891V171.78H34.9921ZM38.6384 171.78H39.5934L36.5006 175.634L39.7236 179.858H38.7252L35.5456 175.721L38.6384 171.78Z" fill="#263D5A"/>
<path d="M43.6945 171.78H44.5844L48.0245 179.858H47.1563L45.9951 177.151H42.2621L41.1009 179.858H40.2328L43.6945 171.78ZM45.6804 176.42L44.1395 172.719L42.5768 176.42H45.6804Z" fill="#263D5A"/>
<path d="M48.9459 171.78H54.7191V179.858H53.9161V172.512H49.7489V179.858H48.9459V171.78Z" fill="#263D5A"/>
<path d="M56.5413 171.78H59.0807C61.4355 171.78 61.8479 173.287 61.8479 174.204C61.8479 175.404 61.11 176.616 59.0807 176.616H57.3444V179.858H56.5413V171.78ZM57.3444 175.885H59.0915C60.524 175.885 61.0449 175.044 61.0449 174.204C61.0449 173.341 60.524 172.512 59.0915 172.512H57.3444V175.885Z" fill="#263D5A"/>
<path d="M63.7679 171.78V178.712L68.5428 171.78H69.3892V179.858H68.5862V172.927L63.8113 179.858H62.9649V171.78H63.7679Z" fill="#263D5A"/>
<path d="M79.155 175.776C79.155 178.199 77.2884 180 74.901 180C72.5353 180 70.6471 178.264 70.6471 175.841C70.6471 173.418 72.5136 171.638 74.901 171.638C77.2993 171.638 79.155 173.374 79.155 175.776ZM78.3519 175.776C78.3519 173.767 76.8435 172.37 74.9119 172.37C72.9477 172.37 71.4501 173.833 71.4501 175.841C71.4501 177.871 72.9802 179.269 74.9119 179.269C76.8652 179.269 78.3519 177.795 78.3519 175.776Z" fill="#263D5A"/>
<path d="M86.9021 179.858H86.0231L83.2124 172.796L80.3801 179.858H79.5011L82.8326 171.78H83.5923L86.9021 179.858Z" fill="#263D5A"/>
<path d="M88.605 171.78V175.121H90.4498C92.0776 175.121 93 176.048 93 177.489C93 178.898 91.9691 179.858 90.4498 179.858H87.8019V171.78H88.605ZM88.605 179.127H90.4607C91.8606 179.127 92.197 178.112 92.197 177.489C92.197 176.867 91.8606 175.852 90.4607 175.852H88.605V179.127Z" fill="#263D5A"/>
</g>
</svg>
