<svg width="50" height="68" viewBox="0 0 50 68" fill="none" xmlns="http://www.w3.org/2000/svg">
<path d="M41.1111 14.0741C38.0741 14.0741 35.6296 11.5556 35.6296 8.59259V0H1.92593C0.888889 0 0 0.888889 0 1.92593V66.0741C0 67.1111 0.888889 68 1.92593 68H47.7778C48.8148 68 49.6296 67.1111 49.6296 66.0741V14.0741H41.1111ZM16 34.2963C15.1852 35.037 14 35.3333 12.2963 35.3333H9.85185V39.1111C9.85185 41.3333 7.18519 41.3333 7.18519 39.1111V28.8889C7.18519 27.7037 7.7037 27.2593 8.88889 27.2593C10.3704 27.2593 13.4815 27.1852 14.6667 27.4815C17.9259 28.3704 17.9259 32.7407 16 34.2963ZM30.6667 36C30.2222 38.2963 28.7407 40 26.3704 40.3704L21.2593 40.5185C19.8519 40.5185 19.5556 39.9259 19.5556 38.5926V28.8889C19.5556 27.7037 20.0741 27.2593 21.1852 27.2593C22.8148 27.2593 25.6296 27.1111 27.037 27.4815C30.4444 28.3704 31.4074 32.6667 30.6667 36ZM42.0741 29.037C41.8518 29.2593 41.5556 29.3333 41.1111 29.3333H35.8519V32.7407H40.2963C41.9259 32.7407 41.9259 34.7407 40.2963 34.7407H35.8519V39.1111C35.8519 41.037 34.1481 41.037 33.5556 40.3704C33.3333 40.0741 33.1852 39.6296 33.1852 39.1111V28.8889C33.1852 27.7037 33.7037 27.2593 34.8148 27.2593H41.1111C42.5926 27.2593 42.5926 28.5926 42.0741 29.037Z" fill="#3874BF"/>
<path d="M11.7039 29.2593H9.92612V33.3334H9.85205C11.778 33.3334 14.5928 33.7037 14.5928 31.2593C14.5928 29.6296 13.4817 29.2593 11.7039 29.2593Z" fill="#3874BF"/>
<path d="M23.9999 29.4814H22.2222V38.4444C23.3333 38.4444 25.1851 38.5185 26.074 38.2222C28.5925 37.3333 28.4444 32.4444 27.5555 30.9629C26.7407 29.6296 25.5555 29.4814 23.9999 29.4814Z" fill="#3874BF"/>
<path d="M41.1112 10.8149H47.3335L38.8149 2.29639V8.51861C38.8149 9.85194 39.852 10.8149 41.1112 10.8149Z" fill="#3874BF"/>
</svg>
