<svg width="29" height="29" viewBox="0 0 29 29" fill="none" xmlns="http://www.w3.org/2000/svg">
<path d="M10.572 8.65585L10.572 8.65584C10.7863 8.44146 10.8774 8.13303 10.8139 7.83659L9.4896 1.65643L9.44071 1.6669L9.4896 1.65643C9.40129 1.24442 9.03711 0.95 8.61572 0.95C7.32851 0.95 6.10926 1.25457 4.99228 1.85521C3.94483 2.41848 3.02762 3.2352 2.33961 4.21713C1.65463 5.19477 1.20197 6.32915 1.03055 7.4979C0.847565 8.74564 0.976728 9.98898 1.41407 11.193C2.7689 14.9227 4.97551 18.3845 7.7955 21.2045C10.6155 24.0244 14.0773 26.231 17.807 27.5859C18.6573 27.8948 19.5273 28.05 20.4048 28.05C20.7696 28.0499 21.1357 28.0231 21.5019 27.9694C22.6707 27.798 23.8051 27.3453 24.7827 26.6603C25.7646 25.9723 26.5813 25.0551 27.1446 24.0077C27.7453 22.8907 28.0499 21.6714 28.0499 20.3842C28.0499 19.9628 27.7555 19.5986 27.3434 19.5103L21.1633 18.1859L21.1633 18.1859C20.8669 18.1226 20.5584 18.2135 20.344 18.4279L18.1067 20.6652C13.8976 18.5394 10.4604 15.1023 8.33468 10.8931L10.572 8.65585ZM3.80346 5.24289C4.78087 3.84789 6.24777 2.97444 7.9022 2.77917L8.96432 7.73576L6.62031 10.0798C6.35392 10.3461 6.28321 10.7508 6.44335 11.0917C8.8065 16.1219 12.8781 20.1935 17.9082 22.5566C18.2491 22.7168 18.6538 22.646 18.9202 22.3797L21.2642 20.0357L26.2208 21.0978C26.0255 22.7522 25.1521 24.2191 23.7571 25.1965C22.1745 26.3055 20.2285 26.5639 18.4172 25.9059C11.274 23.311 5.68894 17.726 3.09409 10.5828C2.43609 8.7714 2.69455 6.82552 3.80346 5.24289ZM26.2621 14.4996C26.2621 14.9932 26.6622 15.3934 27.1558 15.3934C27.6494 15.3934 28.0495 14.9932 28.0495 14.4996C28.0495 10.8805 26.6401 7.47779 24.081 4.9187C21.5219 2.35962 18.1192 0.950198 14.5001 0.950198C14.0065 0.950198 13.6064 1.35036 13.6064 1.84391C13.6064 2.33747 14.0065 2.73763 14.5001 2.73763C20.9856 2.73763 26.2621 8.01409 26.2621 14.4996ZM22.8872 14.4996C22.8872 14.9932 23.2874 15.3933 23.7809 15.3933C24.2745 15.3933 24.6747 14.9932 24.6747 14.4996C24.6747 8.88929 20.1104 4.32503 14.5001 4.32503C14.0065 4.32503 13.6064 4.72519 13.6064 5.21874C13.6064 5.7123 14.0065 6.11246 14.5001 6.11246C19.1247 6.11246 22.8872 9.87498 22.8872 14.4996ZM19.5124 14.4996C19.5124 14.9931 19.9125 15.3933 20.4061 15.3933C20.8997 15.3933 21.2998 14.9931 21.2998 14.4996C21.2998 10.7501 18.2495 7.69985 14.5001 7.69985C14.0065 7.69985 13.6064 8.10001 13.6064 8.59357C13.6064 9.08713 14.0065 9.48729 14.5001 9.48729C17.2638 9.48729 19.5124 11.7358 19.5124 14.4996Z" fill="white" stroke="white" stroke-width="0.1"/>
</svg>
