<svg width="23" height="14" viewBox="0 0 23 14" fill="none" xmlns="http://www.w3.org/2000/svg">
<path fill-rule="evenodd" clip-rule="evenodd" d="M12.1614 0.910169C11.0083 0.915081 10.273 0.917113 9.23631 0.917113C8.36934 0.917113 7.88229 1.26662 7.86684 1.4759C7.85281 1.66641 8.29524 1.82135 8.56426 1.97486C8.82404 2.13559 9.05864 2.64553 9.05864 2.99012V5.99311C9.05864 6.27842 8.99351 6.47674 8.76244 6.66321C8.65229 6.75223 8.52134 6.77537 8.37981 6.7745C8.26539 6.7745 8.10946 6.75282 8.00236 6.61377C6.86034 5.14031 6.85651 4.95849 5.25664 1.98729C5.17901 1.84362 5.10241 1.6907 4.94344 1.57564C4.78466 1.46058 4.54911 1.38542 4.17164 1.38542C2.88571 1.38542 2.09206 1.40247 1.24654 1.40247C0.446215 1.40247 0.523064 1.89247 0.630364 2.11593C1.58976 4.1106 2.56411 6.01566 3.68411 7.94991C4.99561 10.2143 6.19456 11.5744 8.21226 12.551C8.68061 12.7787 9.52499 13.0117 10.5009 13.0117H12.5745C12.8409 13.0117 13.2837 12.8024 13.2837 12.5206V10.9688C13.2837 10.5256 13.7273 10.3649 13.9693 10.2553C14.2545 10.127 14.5534 10.3302 14.7039 10.4895C15.8633 11.7259 15.7315 11.5912 16.7878 12.6975C17.0264 12.9487 17.2067 13.0794 17.6579 13.0794C20.7044 13.0794 20.7068 13.0852 21.4345 13.0794C21.6343 13.0782 21.9308 12.779 21.9964 12.6628C22.0831 12.509 22.2796 11.9601 21.9642 11.6048C20.8936 10.3967 19.8024 9.29126 18.7566 8.1939C18.6767 8.11092 18.6164 7.99761 18.6142 7.88198C18.612 7.75622 18.6826 7.63278 18.7566 7.53074C19.9296 5.90726 20.8984 4.53238 21.9523 2.8239C22.2951 2.26915 22.2506 1.87599 22.1877 1.741C22.1148 1.5846 21.8902 1.3675 21.6326 1.36577C20.2251 1.35825 19.6163 1.33887 18.1149 1.3409C17.6664 1.34148 17.2692 1.30737 17.0231 1.84535C16.3633 3.28875 15.2866 5.48924 14.3519 6.40447C14.1793 6.57388 13.9488 6.69934 13.7475 6.70049C13.5464 6.70106 13.3324 6.56492 13.3024 6.23738C13.2793 4.66766 13.2985 3.32719 13.2905 1.78985C13.288 1.31894 13.0893 1.19868 12.9384 1.09374C12.7338 0.952377 12.4105 0.909305 12.1614 0.910169V0.910169Z" fill="#113562"/>
</svg>
