<svg width="18" height="12" viewBox="0 0 18 12" fill="none" xmlns="http://www.w3.org/2000/svg">
<path d="M17.235 1.15636C16.7467 0.314182 16.2169 0.159273 15.138 0.100364C14.0603 0.0294546 11.3501 0 9.00225 0C6.64987 0 3.93862 0.0294546 2.862 0.0992728C1.78537 0.159273 1.25437 0.313091 0.761625 1.15636C0.25875 1.99745 0 3.44618 0 5.99673C0 5.99891 0 6 0 6C0 6.00218 0 6.00327 0 6.00327V6.00546C0 8.54509 0.25875 10.0047 0.761625 10.8371C1.25437 11.6793 1.78425 11.832 2.86087 11.9029C3.93863 11.964 6.64987 12 9.00225 12C11.3501 12 14.0602 11.964 15.1391 11.904C16.218 11.8331 16.7479 11.6804 17.2361 10.8382C17.7435 10.0058 18 8.54618 18 6.00655C18 6.00655 18 6.00327 18 6.00109C18 6.00109 18 5.99891 18 5.99782C18 3.44618 17.7435 1.99745 17.235 1.15636ZM6.75 9.27273V2.72727L12.375 6L6.75 9.27273Z" fill="#113562"/>
</svg>
