<svg width="17" height="18" viewBox="0 0 17 18" fill="none" xmlns="http://www.w3.org/2000/svg">
<path fill-rule="evenodd" clip-rule="evenodd" d="M17 8.59609C13.2362 8.71002 11.5151 8.80397 10.1423 10.1447C8.80189 11.5178 8.7076 13.2392 8.59403 17.0036C12.0977 17.0036 14.525 16.9923 15.7712 15.7748C16.988 14.5286 16.9997 11.9864 17 8.59609ZM8.77792 3.44128C8.67585 2.51899 8.63627 1.40115 8.59402 0.000488281H8.59396C8.59396 0.000325525 8.59395 0.000162764 8.59395 0C12.0976 0.000333112 14.525 0.0119921 15.7712 1.22918C16.988 2.47536 16.9997 5.01767 17 8.40811C13.2362 8.29446 11.515 8.20023 10.1422 6.85944C9.30059 5.99728 8.95023 4.99775 8.77792 3.44128ZM8.1406 12.9541C8.30608 13.984 8.35404 15.2795 8.40605 17.0036C4.90239 17.0036 2.47472 16.9923 1.22854 15.7748C0.0116477 14.5286 5.25749e-07 11.9864 0 8.59609C3.7639 8.71002 5.48505 8.80396 6.85784 10.1447C7.5843 10.8889 7.94474 11.7355 8.1406 12.9541ZM1.22847 1.22918C2.47465 0.0119921 4.90239 0.000333112 8.40605 0C8.29248 3.76483 8.19818 5.48636 6.85777 6.85944C5.48498 8.20023 3.76383 8.29446 0 8.40811C0 5.01767 0.0116208 2.47536 1.22847 1.22918Z" fill="#113562"/>
</svg>
